<svg width="17" height="13" viewBox="0 0 17 13" fill="none" xmlns="http://www.w3.org/2000/svg"> <path d="M8.50306 0.00159638C10.8256 0.00159638 13.147 0.000374151 15.4695 0.00159638C16.1895 0.00159638 16.7494 0.412265 16.9389 1.07838C16.9768 1.2116 16.9963 1.3546 16.9963 1.49394C17 4.80495 16.9988 8.11597 17 11.4258C17 12.3669 16.3778 12.9988 15.4402 12.9988C11.9001 12.9988 8.36003 12.9975 4.81872 12.9975C3.73078 12.9975 2.64284 12.9975 1.55368 13C0.640541 13.0024 0 12.3644 0 11.4514C0 8.13064 0.00122241 4.80862 0.00122241 1.48783C0.00122241 0.665266 0.642986 0.00892975 1.47422 0.00404084C2.76997 -0.00329253 4.06694 0.00159638 5.36392 0.00159638C6.4103 0.00159638 7.45668 0.00281861 8.50306 0.00159638ZM8.49939 1.00505C8.49939 1.00382 8.49939 1.00382 8.49939 1.0026C7.27576 1.0026 6.05335 1.0026 4.82973 1.0026C3.73078 1.0026 2.63306 1.00382 1.53412 1.00382C1.37154 1.00382 1.22485 1.0356 1.11483 1.17005C1.04393 1.2556 1.01949 1.32038 1.1185 1.41816C1.99863 2.28961 2.87143 3.16717 3.7479 4.0435C4.8554 5.15084 5.9629 6.25818 7.06917 7.36674C7.28554 7.58308 7.52758 7.76274 7.81606 7.86419C8.6473 8.15875 9.37341 7.96808 9.99072 7.35452C11.1826 6.16896 12.3683 4.97851 13.5565 3.78928C14.329 3.01683 15.1004 2.24194 15.8778 1.47438C15.9964 1.35827 15.9695 1.27271 15.8827 1.17005C15.7641 1.02949 15.6052 1.0026 15.4317 1.0026C13.1213 1.00505 10.8097 1.00505 8.49939 1.00505ZM11.5285 7.15285C11.2192 7.46941 10.9295 7.76641 10.6398 8.06341C9.50176 9.2282 7.60214 9.24775 6.4543 8.10375C6.14503 7.79575 5.84555 7.47919 5.53994 7.16507C5.48127 7.21885 5.44949 7.24452 5.42015 7.27385C4.40555 8.28953 3.39095 9.3052 2.37636 10.3221C1.9534 10.745 1.5329 11.1715 1.10505 11.5895C1.02315 11.669 1.0366 11.7277 1.09161 11.8022C1.20407 11.9562 1.36298 11.999 1.5439 11.999C3.3445 11.9978 5.14633 11.999 6.94693 11.999C9.76336 11.999 12.5798 11.999 15.3962 11.9978C15.494 11.9978 15.5955 11.9917 15.6884 11.9648C15.9585 11.889 16.0172 11.6604 15.8228 11.4661C14.697 10.3404 13.5699 9.21475 12.4453 8.08786C12.1458 7.78474 11.85 7.47919 11.5285 7.15285ZM1.04882 2.71005C1.03782 2.71983 1.02682 2.72961 1.01582 2.74061C1.01582 5.24251 1.01582 7.74563 1.01582 10.2121C2.2639 8.96786 3.52297 7.71386 4.74171 6.49774C3.51564 5.24007 2.28223 3.97506 1.04882 2.71005ZM12.3109 6.48307C13.5174 7.69186 14.7557 8.93242 15.9854 10.1644C15.9854 7.7163 15.9854 5.24984 15.9854 2.78217C15.9732 2.77361 15.9597 2.76505 15.9475 2.75528C14.7288 4.00562 13.51 5.25473 12.3109 6.48307Z" fill="white"></path> </svg>