<svg width="13" height="13" viewBox="0 0 13 13" fill="none" xmlns="http://www.w3.org/2000/svg"> <path d="M2.59735 5.56254C3.7342 7.61619 5.26748 9.24824 7.36045 10.3304C7.83462 9.85442 8.3088 9.39395 8.76548 8.91794C9.07058 8.59931 9.4165 8.49633 9.83431 8.63622C10.6233 8.9024 11.4395 9.00343 12.2674 9.03257C12.7571 9.05006 13 9.31041 13 9.80391C13 10.6102 13 11.4165 13 12.2228C13 12.728 12.726 13.0019 12.2168 13C11.2471 12.9942 10.291 12.8756 9.34848 12.6464C7.74134 12.2578 6.27413 11.5681 4.95266 10.583C3.32221 9.37258 2.06682 7.84157 1.18649 6.01135C0.667619 4.93498 0.311989 3.80227 0.146806 2.61904C0.0593561 1.99731 0.0302061 1.36586 0.00105618 0.736362C-0.0203205 0.28755 0.284783 0.00194291 0.735635 0C1.55961 0 2.38358 0 3.20755 0C3.68173 0 3.94408 0.237035 3.96351 0.71499C3.99655 1.53101 4.09177 2.33537 4.29971 3.12419C4.30554 3.14557 4.30748 3.16888 4.31719 3.18831C4.5057 3.54192 4.35412 3.81004 4.10537 4.05873C3.60205 4.55612 3.10456 5.05544 2.59735 5.56254Z" fill="white"></path> <path d="M7 1.32355C7 0.878602 7 0.44086 7 0.00311826C10.0519 -0.103165 13.0462 2.51968 12.9995 6C12.5622 6 12.1249 6 11.675 6C11.6516 4.7228 11.2198 3.60593 10.311 2.69442C9.4041 1.78471 8.29382 1.34877 7 1.32355Z" fill="white"></path> <path d="M7 3.58748C7 3.04968 7 2.52485 7 2.00001C9.09164 1.99569 10.959 3.59396 11 6C10.4717 6 9.94124 6 9.41294 6C9.31806 4.47517 8.28733 3.64795 7 3.58748Z" fill="white"></path> </svg>