<svg width="17" height="17" viewBox="0 0 17 17" fill="none" xmlns="http://www.w3.org/2000/svg"> <path d="M8.49044 0C9.87005 0.0222163 11.2342 0.158412 12.5838 0.406655C13.5627 0.5868 14.3657 1.11178 15.0722 1.7633C15.8097 2.44331 16.4173 3.21991 16.6332 4.21095C16.971 5.76175 17.1019 7.328 16.9135 8.90777C16.8396 9.52886 16.7571 10.1514 16.6302 10.7638C16.4293 11.7317 15.8392 12.4933 15.1262 13.1622C14.4386 13.8074 13.6636 14.3503 12.7032 14.5343C11.9152 14.6855 11.1132 14.798 10.3123 14.8516C9.37636 14.9144 8.43447 14.8902 7.49558 14.9168C7.37915 14.9202 7.23624 14.9776 7.1543 15.0573C6.59716 15.6002 6.0565 16.1585 5.50436 16.7062C5.11961 17.0882 4.57446 17.1051 4.29514 16.7134C4.17322 16.5424 4.12675 16.2971 4.11425 16.0817C4.08777 15.6325 4.09926 15.1805 4.10926 14.7299C4.11326 14.5584 4.0493 14.4865 3.8834 14.4189C2.22547 13.7417 0.980275 12.6445 0.437125 10.9584C0.198278 10.2166 0.130822 9.41439 0.0558702 8.63344C-0.085039 7.15944 0.0498741 5.6951 0.356177 4.24621C0.501083 3.56137 0.84836 2.96877 1.29757 2.43123C2.01661 1.57108 2.87006 0.867884 3.97534 0.532708C4.53299 0.363671 5.1241 0.275289 5.70773 0.212987C6.63213 0.114945 7.56253 0.0685807 8.49044 0ZM4.77533 14.6463C4.77533 15.1129 4.77033 15.5799 4.78033 16.046C4.78183 16.1223 4.83279 16.2193 4.89425 16.2638C4.92473 16.286 5.03866 16.2208 5.10062 16.1764C5.17357 16.1247 5.23104 16.0527 5.29499 15.9895C6.09648 15.194 6.89396 14.3952 7.70344 13.6075C7.79738 13.5162 7.95528 13.437 8.0842 13.4365C9.35838 13.4326 10.6241 13.3486 11.8822 13.1462C13.3973 12.9028 14.3991 12.0224 14.9937 10.715C15.2146 10.2292 15.2536 9.65684 15.3255 9.11786C15.5114 7.72064 15.4445 6.32826 15.1856 4.94216C14.9048 3.44111 13.9369 2.46263 12.5173 1.99367C11.6389 1.70341 10.66 1.65994 9.71964 1.59329C8.29106 1.49187 6.86498 1.58364 5.4419 1.76571C4.52649 1.88259 3.728 2.19458 3.06143 2.81422C2.4963 3.34017 2.0221 3.9149 1.8667 4.68957C1.60387 5.99888 1.49095 7.31785 1.63036 8.64552C1.69981 9.30621 1.75378 9.98864 1.97214 10.6097C2.38137 11.7756 3.2758 12.5464 4.45304 12.9956C4.69088 13.0864 4.79831 13.1815 4.78232 13.4399C4.75684 13.8407 4.77483 14.244 4.77533 14.6463Z" fill="white"></path> <path d="M8.89566 9.76449C8.98303 9.71761 9.10239 9.67452 9.19405 9.59827C9.29622 9.5135 9.37214 9.39795 9.46141 9.29708C9.72973 8.99447 10.0415 8.92297 10.3733 9.13986C10.8374 9.44294 11.29 9.76544 11.7302 10.1026C12.0424 10.3418 12.071 10.5852 11.881 10.9361C11.617 11.4234 11.2613 11.815 10.7066 11.9765C10.6077 12.0054 10.4826 12.0101 10.3871 11.9765C8.21532 11.2084 6.3777 9.99417 5.17076 7.99383C4.76494 7.32089 4.45891 6.58875 4.10466 5.88503C3.92562 5.52891 3.98817 5.19978 4.20206 4.88202C4.44268 4.52495 4.76351 4.26117 5.15214 4.07885C5.42714 3.94956 5.65058 3.9704 5.83773 4.20766C6.19914 4.66607 6.55196 5.13443 6.86468 5.62646C7.09719 5.99253 6.99549 6.3245 6.64936 6.60201C6.5935 6.64653 6.53573 6.68868 6.48178 6.73509C6.24784 6.93446 6.19914 7.07605 6.30513 7.36019C6.71524 8.45745 7.42661 9.27198 8.55669 9.68399C8.65122 9.71761 8.75434 9.73134 8.89566 9.76449Z" fill="white"></path> <path d="M12.981 7.47581C12.9859 7.54473 12.9946 7.61365 12.9957 7.68205C12.9978 7.84579 12.9408 7.97948 12.7503 7.99813C12.5619 8.01627 12.4648 7.9002 12.4414 7.73853C12.404 7.48307 12.3747 7.22553 12.3568 6.968C12.2558 5.52332 11.0415 4.10507 9.56336 3.74131C9.1557 3.6413 8.73121 3.60244 8.31377 3.5387C8.14061 3.51227 7.98536 3.46875 8.0011 3.2594C8.01739 3.04125 8.19435 2.99565 8.37077 3.00031C10.085 3.04229 11.7493 3.87292 12.5386 5.54612C12.6819 5.84977 12.7823 6.17674 12.8594 6.50216C12.9349 6.8198 12.9555 7.14884 13 7.47322C12.994 7.47426 12.9875 7.47529 12.981 7.47581Z" fill="white"></path> <path d="M12 7.60417C11.9968 7.61942 12.0057 7.72003 11.9576 7.77308C11.8695 7.87004 11.7461 8.00359 11.6416 7.99993C11.5409 7.99627 11.3889 7.85297 11.3604 7.74625C11.2958 7.50356 11.3122 7.24196 11.2622 6.99377C11.0026 5.70711 10.002 4.82719 8.64293 4.67474C8.5283 4.66193 8.41494 4.63754 8.30032 4.61986C8.08816 4.58693 7.97354 4.4668 8.0052 4.26252C8.03814 4.05458 8.20152 3.98873 8.40354 4.00153C9.17679 4.0497 9.88924 4.26801 10.5225 4.70767C11.5257 5.40344 11.9322 6.38947 12 7.60417Z" fill="white"></path> <path d="M10.6785 7.32641C10.6231 7.32172 10.5 7.3452 10.3848 7.29403C10.2096 7.2161 10.1549 7.09402 10.1735 6.99839C10.1819 6.95625 10.1891 6.91379 10.1943 6.87018C10.231 6.58893 10.0725 6.36025 9.62624 6.0529C9.57992 6.02087 9.50904 5.99135 9.48669 5.96127C9.41542 5.86575 9.29625 5.73633 9.31652 5.6838C9.35015 5.59648 9.51719 5.64484 9.69144 5.74619C10.4784 6.20196 10.9319 6.88414 10.6785 7.32641Z" fill="white"></path> </svg>