<svg width="21" height="12" viewBox="0 0 21 12" fill="none" xmlns="http://www.w3.org/2000/svg"> <path d="M12.1098 3.00992C12.1098 3.7738 12.1115 4.53769 12.1089 5.30199C12.108 5.52953 12.1505 5.74206 12.3793 5.85375C12.6015 5.96252 12.8294 5.88376 12.9871 5.73915C13.3745 5.38409 13.7768 5.03277 14.0989 4.62687C15.0911 3.37457 15.8891 2.01224 16.5233 0.564074C16.7121 0.132749 16.8958 0.0173119 17.3914 0.0168951C18.1438 0.0164784 18.8959 0.0135612 19.6483 0.0198123C19.7842 0.0210625 19.9279 0.0389824 20.0541 0.084407C20.3951 0.206512 20.5432 0.561157 20.4213 0.910385C20.1396 1.72094 19.6965 2.45774 19.2254 3.17411C18.6798 4.00301 18.0842 4.80232 17.5141 5.61663C17.4094 5.76665 17.3125 5.92293 17.2266 6.08337C17.0824 6.35175 17.1074 6.60263 17.3322 6.82934C17.6377 7.13773 17.9436 7.4457 18.2394 7.76242C18.9129 8.48338 19.6027 9.19267 20.2404 9.94197C20.53 10.2824 20.7312 10.6967 20.9358 11.0943C21.1427 11.4968 20.8232 11.9861 20.3525 11.9923C19.3521 12.0057 18.3516 11.9977 17.3511 11.9969C17.1118 11.9965 16.9374 11.8877 16.8077 11.6998C16.0333 10.5796 15.0262 9.66525 13.9434 8.82469C13.7234 8.65382 13.4477 8.5313 13.1778 8.43879C12.7869 8.30501 12.5103 8.50505 12.5042 8.90095C12.4954 9.45646 12.4783 10.0132 12.5073 10.5675C12.5419 11.2239 12.0585 11.9736 11.0054 11.989C9.44444 12.0119 8.05743 11.5227 6.76595 10.7375C5.60682 10.0328 4.64314 9.12682 3.84819 8.06539C2.59615 6.39343 1.47865 4.64437 0.673175 2.7332C0.410234 2.11101 0.223984 1.45923 0.0285318 0.814118C-0.0989945 0.392378 0.215658 0.0110608 0.679749 0.00605991C1.50494 -0.00310836 2.33014 -0.000607921 3.15534 0.00522643C3.51075 0.00772687 3.6913 0.161921 3.83854 0.516566C4.26933 1.55466 4.67601 2.60276 5.15106 3.62253C5.602 4.59061 6.20764 5.4791 6.96053 6.26424C7.15204 6.46386 7.40183 6.62764 7.65382 6.75599C7.88871 6.8756 8.08679 6.77641 8.16348 6.53012C8.2244 6.333 8.26778 6.12213 8.26735 5.91793C8.26472 4.85649 8.26165 3.79464 8.22528 2.73362C8.20599 2.16644 8.05962 1.62384 7.66477 1.16585C7.5035 0.97873 7.35669 0.775778 7.23443 0.564074C7.17483 0.46114 7.131 0.289443 7.18228 0.205261C7.24012 0.109828 7.41191 0.0756554 7.53637 0.0189788C7.56003 0.00814361 7.59422 0.0173119 7.62314 0.0173119C8.84275 0.0173119 10.0624 0.0168951 11.282 0.0173119C11.8543 0.0177286 12.1089 0.259438 12.1094 0.801616C12.1102 1.53758 12.1098 2.27354 12.1098 3.00992Z" fill="white"></path> </svg>