<svg width="17" height="17" viewBox="0 0 17 17" fill="none" xmlns="http://www.w3.org/2000/svg"> <path d="M0 17C0.210858 16.4151 0.414118 15.851 0.61765 15.2869C0.877356 14.5667 1.13489 13.8457 1.4003 13.1277C1.44344 13.0113 1.4372 12.9265 1.36909 12.8193C0.804084 11.9282 0.407605 10.9671 0.205431 9.93179C0.052104 9.1468 0.0227955 8.35586 0.106922 7.5579C0.255093 6.1556 0.719958 4.86915 1.52024 3.70853C2.67576 2.03322 4.23616 0.90231 6.19793 0.328212C7.06633 0.0741074 7.9559 -0.0312069 8.85904 0.00794842C10.5996 0.0832886 12.1804 0.627142 13.5755 1.6684C15.1571 2.84873 16.2125 4.3928 16.7216 6.29656C16.9588 7.18336 17.05 8.08717 16.9737 9.0053C16.7428 11.781 15.4478 13.9391 13.1381 15.4913C12.0887 16.1964 10.9174 16.6044 9.66095 16.7807C8.08399 17.0022 6.59197 16.73 5.16291 16.0578C4.9838 15.9736 4.81067 15.8761 4.62966 15.7956C4.57077 15.7694 4.49044 15.7584 4.42965 15.7751C2.99137 16.1726 1.55416 16.575 0.116691 16.976C0.0871114 16.9843 0.056446 16.9887 0 17ZM2.08742 15.0606C2.10913 15.0652 2.11835 15.0703 2.12568 15.0682C2.90507 14.8505 3.685 14.6339 4.46331 14.4125C4.54797 14.3885 4.61175 14.3923 4.68855 14.4398C5.62615 15.0239 6.63946 15.3909 7.74396 15.5134C8.69513 15.619 9.62812 15.541 10.5421 15.2712C12.1807 14.7879 13.4871 13.8427 14.4556 12.4391C15.146 11.4389 15.5381 10.3296 15.663 9.12735C15.7354 8.43093 15.6958 7.73721 15.5596 7.04888C15.3175 5.82508 14.7959 4.73332 13.9745 3.79359C12.6697 2.30137 11.0222 1.47344 9.03516 1.32087C7.95563 1.23797 6.91084 1.39567 5.90811 1.79073C4.36073 2.40074 3.16315 3.42823 2.32351 4.85916C1.77208 5.79915 1.46732 6.81638 1.38483 7.90301C1.33055 8.61698 1.38727 9.32016 1.54521 10.0166C1.77181 11.0154 2.21035 11.9163 2.82393 12.7348C2.87685 12.8053 2.88309 12.8644 2.85432 12.943C2.69014 13.3883 2.52922 13.8346 2.36775 14.2807C2.27358 14.5397 2.18104 14.7992 2.08742 15.0606Z" fill="white"></path> <path d="M5.60753 4.0061C5.62975 4.0061 5.65223 4.0061 5.67445 4.0061C6.05833 4.00663 6.16327 4.08067 6.29926 4.43616C6.52252 5.01939 6.73882 5.60555 6.97626 6.18316C7.09753 6.47825 6.96609 6.70384 6.82073 6.92595C6.69947 7.11118 6.55089 7.27931 6.40767 7.44957C6.26178 7.62331 6.24277 7.72408 6.35012 7.92027C6.90265 8.93035 7.63427 9.77578 8.63572 10.366C8.89137 10.5167 9.16202 10.6429 9.43052 10.7704C9.60532 10.8535 9.71562 10.8246 9.82939 10.6765C10.0676 10.3662 10.3035 10.0538 10.5348 9.73809C10.6625 9.56355 10.7671 9.51598 10.9684 9.60552C11.2648 9.73729 11.5558 9.88189 11.8443 10.03C12.1723 10.1984 12.4946 10.378 12.8206 10.5501C12.9497 10.6183 13 10.7214 13 10.8652C12.9997 11.2026 12.9392 11.5295 12.8198 11.8419C12.6793 12.2094 12.376 12.4342 12.0593 12.6387C11.419 13.0519 10.7251 13.0853 10.0213 12.867C9.04905 12.5655 8.13138 12.1466 7.33043 11.5011C6.71365 11.0042 6.14854 10.4539 5.67686 9.81988C5.27424 9.27863 4.88742 8.7216 4.54316 8.14212C4.18337 7.53644 3.97644 6.87036 4.00214 6.15162C4.02918 5.39252 4.32204 4.74916 4.86226 4.21752C5.07052 4.01278 5.33287 3.98445 5.60753 4.0061Z" fill="white"></path> </svg>